/* XPM */
static char *ArpmanetDC[] = {
/* columns rows colors chars-per-pixel */
"32 32 176 2",
"   c #0B2648",
".  c #0E325F",
"X  c #0F3461",
"o  c #103665",
"O  c #113867",
"+  c #123B6B",
"@  c #133E73",
"#  c #154174",
"$  c #14437B",
"%  c #164781",
"&  c #174984",
"*  c #184B87",
"=  c #194D8B",
"-  c #1B508F",
";  c #1C5393",
":  c #17529B",
">  c #19549D",
",  c #2B5F9F",
"<  c #3D6697",
"1  c #32649F",
"2  c #1755A0",
"3  c #1957A1",
"4  c #1B5AA5",
"5  c #1D5DAB",
"6  c #255DA2",
"7  c #215EA8",
"8  c #1E60AF",
"9  c #1F62B2",
"0  c #2A61A3",
"q  c #2362AB",
"w  c #2A64AA",
"e  c #3063A2",
"r  c #386BA7",
"t  c #346BAD",
"y  c #2165B4",
"u  c #2568B6",
"i  c #2E6BB4",
"p  c #2267B9",
"a  c #246ABC",
"s  c #286EBF",
"d  c #306DB6",
"f  c #3C73B4",
"g  c #3271BB",
"h  c #3E7BBF",
"j  c #4E6F97",
"k  c #597596",
"l  c #607D9F",
"z  c #456FA2",
"x  c #4373AD",
"c  c #4C77A9",
"v  c #5C7EA4",
"b  c #517BAC",
"n  c #4677B2",
"m  c #447BBB",
"M  c #507FB5",
"N  c #256EC2",
"B  c #286FC2",
"V  c #2770C6",
"C  c #2A72C4",
"Z  c #2772CA",
"A  c #2975CC",
"S  c #2D79CE",
"D  c #3176C7",
"F  c #3B7AC3",
"G  c #347ACA",
"H  c #387CCB",
"J  c #2776D0",
"K  c #2977D1",
"L  c #2C7AD4",
"P  c #2D7EDA",
"I  c #307DD5",
"U  c #5481B7",
"Y  c #5686BD",
"T  c #5985B9",
"R  c #5D8BBF",
"E  c #6284AA",
"W  c #6B87A9",
"Q  c #6F8DAF",
"!  c #738AA4",
"~  c #6389B5",
"^  c #6A8CB5",
"/  c #6B8EB8",
"(  c #6F91B9",
")  c #7693B6",
"_  c #7696BD",
"`  c #3D80CE",
"'  c #2F81DE",
"]  c #3082DF",
"[  c #2F82E1",
"{  c #3185E4",
"}  c #3389E9",
"|  c #4983C7",
" . c #5B8EC9",
".. c #4286D3",
"X. c #4689D7",
"o. c #4C8BD3",
"O. c #5692D8",
"+. c #6692C7",
"@. c #6892C2",
"#. c #6492C8",
"$. c #7B9CC3",
"%. c #6B9ED8",
"&. c #7EA6D4",
"*. c #78A8DE",
"=. c #8896A6",
"-. c #8095AC",
";. c #8A9AAC",
":. c #909BA7",
">. c #919CA9",
",. c #8098B3",
"<. c #8C9DB1",
"1. c #8FA0B3",
"2. c #90A3B9",
"3. c #9DAABA",
"4. c #A4ACB4",
"5. c #A9ADB2",
"6. c #A4AFBC",
"7. c #ADB0B4",
"8. c #A5B0BD",
"9. c #B5B9BF",
"0. c #B9BBBD",
"q. c #84A4CA",
"w. c #9AACC2",
"e. c #92ADCD",
"r. c #9EB2CA",
"t. c #8AACD4",
"y. c #97B2D0",
"u. c #A0B0C2",
"i. c #A2B6CD",
"p. c #A9B8CA",
"a. c #B6BBC1",
"s. c #B6BFC9",
"d. c #BEC2C7",
"f. c #BDC8D5",
"g. c #B1C4DB",
"h. c #B8C8DC",
"j. c #A4C2E4",
"k. c #B6C9E0",
"l. c #BACEE5",
"z. c #C9C7C5",
"x. c #C4C7CA",
"c. c #C4C9CE",
"v. c #CECECE",
"b. c #C1CCD9",
"n. c #C7D1DE",
"m. c #CFD5DD",
"M. c #D3D3D3",
"N. c #D8D7D6",
"B. c #D4D7DB",
"V. c #D7D8D9",
"C. c #DBDCDC",
"Z. c #E2E1DF",
"A. c #C5D2E2",
"S. c #CAD5E3",
"D. c #CFDAE7",
"F. c #C3D6EC",
"G. c #D4DBE3",
"H. c #DCDEE1",
"J. c #D1DCE9",
"K. c #CFDEF0",
"L. c #D7E0EA",
"P. c #DBE3EC",
"I. c #DFE7F1",
"U. c #E4E3E2",
"Y. c #E9E8E7",
"T. c #E4E8ED",
"R. c #ECEBEB",
"E. c #F2F1EF",
"W. c #E6ECF2",
"Q. c #E9EDF3",
"!. c #F4F4F3",
"~. c #F8F7F6",
"^. c #F9F8F6",
"/. c #F7F8F8",
"(. c #FEFEFD",
"). c None",
/* pixels */
").).).).).).).).).).).).).).).).).).).).).).).).).).).).).).).).",
").).I P P P P I L P L S S S A S S A A C C C C N B B s a a a ).).",
").S } } } } { } { { { { { ] ] ] P P P P P L L L K K A A Z Z , ).",
").S } } } } } { { { { { { ] ' ' P P P P L L K K A A A A Z Z ; ).",
").S } } { } { { { { ' [ P I I I P L P K L K S A Z Z Z Z V N ; ).",
").S } } } { { { { [ I m E -.1.<.,.~ F K K K g c b b g N B B ; ).",
").S } { { { { { [ F ! 0.U.!././.!.U.s.R S Z v z.C.c.h N N N ; ).",
").S { { { { ] ] h :.U.(.(./.Q.I.Q./.(.C.@.C ;.!.(.l.C N a a ; ).",
").C { { { ' [ G =.Y.(.(.K.*.o...o.&.J./.G.^ a.(.(.t.N N N N = ).",
").S { { [ [ ' E N.(.(.F.X.L K J A A | b.^.C.R.(.!. .9 a 9 a = ).",
").C ] ] ' ' F 4./.(.Q.O.K K K A A A Z Y H.(.(.(.I.F 9 N p p = ).",
").C ] ] ' P M M.(.(.j.L K L A A A Z C C w./.(.(.k.a a 9 y y = ).",
").C ' ' P P ^ Y.(./.%.J A A A Z Z V N N ^ Y.(.(.t.9 p y y y * ).",
").C P P P L <.~.(.Q.o.J A A Z Z C N N N n N.(./.#.9 y 9 9 9 * ).",
").C P P L G 3./.(.P.` A Z Z V V N N N N f x.(.W.| 9 y q 9 9 % ).",
").s P L L D 6./.(.J.H A Z Z N N N N N 9 d d.(.D.i 9 8 y 5 5 % ).",
").s L L L D 4.(.(.J.G Z N N B N N a a 9 t d.(.S.i 8 5 5 5 5 % ).",
").a L L K D 3.(.(.J.G N N N N N a a N 9 r x.(.T.f 5 5 5 5 5 $ ).",
").a L K K Z 1.^.(.W.| a N N a a a a p 9 z B.(.!.Y 5 5 5 4 5 % ).",
").u L A A Z ) E.(.!.#.N N a a a 9 a 9 9 k Y.(.(.$.5 5 4 4 4 $ ).",
").u S A Z Z U P.(.(.y.a a a p p p 9 y q :.~.(.(.i.4 5 4 4 4 $ ).",
").u A Z Z Z g s.(.(.G.m a p p 9 p 9 8 j v.(.(.(.A.w 3 4 3 3 $ ).",
").y Z C N N N ) R.(.(.i.i p y 9 9 9 < 5.!.Q.^.(.T.x 3 3 3 3 $ ).",
").y Z N N N N g p.(.(.E.u.c w w e k 5.!.Q.) B.(.~./ 2 3 > 2 # ).",
").q N N B N a 9 m f./.(.^.C.a.4.9.C././.q.6 8.(.(.r.> > > > @ ).",
").q N N N a a N p f i.Q.(.(.(.(.(.(.W.q.7 3 W R.(.B.e > > > @ ).",
").7 B N a a p p y 9 u Y e.h.A.A.g.q.n 4 4 3 0 ^ $.~ 6 > > : @ ).",
").q a a a a p 9 y 9 9 8 5 q w q 7 4 4 3 4 3 3 : : : > : : 2 @ ).",
").4 a a p p y 9 9 9 5 q 5 5 5 5 4 4 4 3 3 > > > : : : : : : @ ).",
").7 p u 9 p y 9 9 q 5 5 5 4 4 4 4 3 3 3 > > > > > : : : : : @ ).",
").).# # @ @ @ + + @ + + O O O O O o o o o o o o . . X . . X   ).",
").).).).).).).).).).).).).).).).).).).).).).).).).).).).).).).)."
};
